# xmcd CD database file
#
# Track frame offsets:
#	150
#	13810
#	32825
#	48885
#	67512
#	80227
#	95805
#	110107
#	122822
#	136715
#	152227
#	167917
#	184297
#
# Disc length: 2670 seconds
#
# Revision: 0
# Processed by: cddbd v1.5.2PL0 Copyright (c) Steve Scherf et al.
# Submitted via: CDex 1.40Beta8
#
DISCID=b20a6c0d
DTITLE=Delmiro Barros 2 - Xoteando Mundo Afora
DYEAR=1998
DGENRE=Forró
TTITLE0=Fogo de Desejo
TTITLE1=Não Me Deixe
TTITLE2=Diga Se Valeu
TTITLE3=Caminheiro
TTITLE4=Gosto de Todas
TTITLE5=Mágoa de Vaqueiro
TTITLE6=Boieiro de Engenho
TTITLE7=Meu Cenário
TTITLE8=Dero Meu
TTITLE9=Vaqueiro Apaixonado
TTITLE10=Só Nós Dois
TTITLE11=No Pé da Serra
TTITLE12=Meu Bem-Querer
EXTD=YEAR: 1998
EXTT0=
EXTT1=
EXTT2=
EXTT3=
EXTT4=
EXTT5=
EXTT6=
EXTT7=
EXTT8=
EXTT9=
EXTT10=
EXTT11=
EXTT12=
PLAYORDER=
